<svg width="512" height="512" viewBox="0 0 512 512" fill="none" xmlns="http://www.w3.org/2000/svg">
<path fill-rule="evenodd" clip-rule="evenodd" d="M452.992 452.16C400.048 491.2 323.328 512 257.28 512C164.48 512 81.248 477.76 18.16 420.752C13.36 416.272 17.648 410.16 23.6 413.648C91.68 453.28 176 477.12 262.816 477.12C325.512 476.831 387.533 464.151 445.312 439.808C454.272 436 461.792 445.68 452.992 452.176M475.008 426.976C468.288 418.336 430.272 422.896 413.248 424.896C408.048 425.536 407.264 421.008 411.936 417.76C442.336 396.48 491.84 402.608 497.632 409.76C503.424 416.912 496.128 466.72 467.712 490.464C463.344 494.112 459.184 492.176 461.312 487.328C467.712 471.392 482.016 435.648 475.232 426.976" fill="#00B6E6"/>
<path fill-rule="evenodd" clip-rule="evenodd" d="M294.88 221.824C294.88 248.896 295.568 271.472 281.888 295.504C270.688 315.024 253.088 327.072 233.808 327.072C207.136 327.072 191.504 306.752 191.504 276.752C191.504 217.552 244.56 206.784 294.896 206.784V221.824M364.976 391.168C360.384 395.28 353.744 395.568 348.56 392.832C325.52 373.68 321.296 364.784 308.688 346.512C270.576 385.392 243.504 397.024 194.16 397.024C135.632 397.024 90.192 360.96 90.192 288.752C90.192 232.368 120.672 193.968 164.272 175.2C201.984 158.592 254.672 155.68 294.912 151.2V142.4C294.912 125.888 296.192 106.336 286.432 92.08C278.032 79.28 261.792 74 247.44 74C220.96 74 197.408 87.6 191.648 115.728C190.48 122.128 185.888 128.144 179.536 128.432L112 120.88C106.336 119.6 100 115.024 101.648 106.48C117.248 24.64 191.12 0 257.184 0C290.992 0 335.168 8.992 361.824 34.592C395.632 66.16 392.416 108.272 392.416 154.112V262.4C392.416 294.944 405.904 309.2 418.608 326.8C423.008 333.2 423.984 340.56 418.32 345.264C400.388 360.427 382.637 375.805 365.072 391.392L364.976 391.2" fill="#221F1F"/>
</svg>
